<?xml version="1.0" encoding="utf-8"?>
<svg viewBox="0 0 200 197.48" xmlns="http://www.w3.org/2000/svg">
  <g id="Group_527" data-name="Group 527" transform="matrix(1, 0, 0, 1, -470.412019, -961.198061)">
    <ellipse id="Ellipse_9" data-name="Ellipse 9" cx="18.833" cy="18.833" rx="18.833" ry="18.833" transform="translate(565.436 984.668)" fill="#3d3d3d"/>
    <path id="Path_7" data-name="Path 7" d="M3687.108,340.422a6.936,6.936,0,1,0-.415-13.865l-.036,0,.415,13.864Z" transform="translate(-3096.656 679.916)" fill="#eaceb9"/>
    <path id="Path_8" data-name="Path 8" d="M3687.339,349.369l-.178-5.963h.037a2.983,2.983,0,1,1,.178,5.963Z" transform="translate(-3097.04 667.019)" fill="#c14040"/>
    <rect id="Rectangle_14" data-name="Rectangle 14" width="43.249" height="44.392" rx="21.624" transform="translate(547.741 1045.132)" fill="#318989"/>
    <rect id="Rectangle_15" data-name="Rectangle 15" width="22.883" height="10.527" rx="5.264" transform="translate(578.752 1047.563) rotate(30.871)" fill="#318989"/>
    <rect id="Rectangle_16" data-name="Rectangle 16" width="19.342" height="10.527" rx="5.264" transform="matrix(-0.955, -0.295, 0.295, -0.955, 552.814, 1061.708)" fill="#318989"/>
    <rect id="Rectangle_17" data-name="Rectangle 17" width="11.967" height="17.961" rx="5.984" transform="translate(562.712 1034.581)" fill="#eaceb9"/>
    <ellipse id="Ellipse_10" data-name="Ellipse 10" cx="18.833" cy="18.833" rx="18.833" ry="18.833" transform="translate(534.342 983.843)" fill="#3d3d3d"/>
    <path id="Path_9" data-name="Path 9" d="M3476.2,332.207a6.936,6.936,0,1,0,.415,13.865l.036,0-.415-13.864Z" transform="translate(-2930.422 675.589)" fill="#eaceb9"/>
    <path id="Path_10" data-name="Path 10" d="M3489.252,349.046l.178,5.963h-.036a2.983,2.983,0,0,1-.178-5.963Z" transform="translate(-2943.32 662.7)" fill="#c14040"/>
    <rect id="Rectangle_18" data-name="Rectangle 18" width="44.392" height="61.75" rx="22.196" transform="translate(544.998 983.921) rotate(-1.713)" fill="#eaceb9"/>
    <ellipse id="Ellipse_11" data-name="Ellipse 11" cx="20.872" cy="16.576" rx="20.872" ry="16.576" transform="translate(534.615 974.003) rotate(-1.713)" fill="#3d3d3d"/>
    <ellipse id="Ellipse_12" data-name="Ellipse 12" cx="14.442" cy="14.442" rx="14.442" ry="14.442" transform="translate(568.905 973.121)" fill="#3d3d3d"/>
    <ellipse id="Ellipse_13" data-name="Ellipse 13" cx="12.165" cy="20.631" rx="12.165" ry="20.631" transform="translate(543.081 983.557) rotate(-66.778)" fill="#3d3d3d"/>
    <ellipse id="Ellipse_14" data-name="Ellipse 14" cx="0.854" cy="0.854" rx="0.854" ry="0.854" transform="translate(565.161 1024.166)" fill="#3d3d3d"/>
    <ellipse id="Ellipse_15" data-name="Ellipse 15" cx="0.854" cy="0.854" rx="0.854" ry="0.854" transform="translate(570.84 1023.996)" fill="#3d3d3d"/>
    <rect id="Rectangle_19" data-name="Rectangle 19" width="4.126" height="17.074" rx="2.063" transform="translate(545.278 1002.153) rotate(-1.713)" fill="#3d3d3d"/>
    <rect id="Rectangle_20" data-name="Rectangle 20" width="4.126" height="19.357" rx="2.063" transform="translate(585.824 998.656) rotate(-1.713)" fill="#3d3d3d"/>
    <rect id="Rectangle_21" data-name="Rectangle 21" width="75.686" height="42.826" rx="5" transform="translate(530.978 1057.786)" fill="#3d3d3d"/>
    <ellipse id="Ellipse_16" data-name="Ellipse 16" cx="6.643" cy="6.643" rx="6.643" ry="6.643" transform="translate(562.178 1072.556)" fill="#fff"/>
    <rect id="Rectangle_23" data-name="Rectangle 23" width="6.048" height="1.466" transform="translate(580.72 1013.215) rotate(178.287)" fill="#3d3d3d"/>
    <line id="Line_6" data-name="Line 6" x1="0.009" y1="0.302" transform="translate(558.584 1028.869)" fill="none"/>
    <line id="Line_7" data-name="Line 7" x1="0.009" y1="0.302" transform="translate(558.407 1022.943)" fill="none"/>
    <ellipse id="Ellipse_17" data-name="Ellipse 17" cx="3.954" cy="3.954" rx="3.954" ry="3.954" transform="translate(554.96 1009.137)" fill="#3d3d3d"/>
    <path id="Path_11" data-name="Path 11" d="M3581.074,438.226l7.051-1.688a3.625,3.625,0,1,1-7.051,1.688Z" transform="translate(-3015.843 595.735)" fill="#3d3d3d"/>
    <rect id="Rectangle_24" data-name="Rectangle 24" width="22.118" height="10.527" rx="5.264" transform="matrix(-0.955, -0.295, 0.295, -0.955, 542.492, 1058.658)" fill="#eaceb9"/>
    <rect id="Rectangle_25" data-name="Rectangle 25" width="28.036" height="10.527" rx="5.264" transform="matrix(0.642, -0.766, 0.766, 0.642, 520.664, 1049.219)" fill="#eaceb9"/>
    <rect id="Rectangle_26" data-name="Rectangle 26" width="21.278" height="2.667" rx="1.333" transform="translate(538.964 1035.602) rotate(-50.309)" fill="#3d3d3d"/>
    <ellipse id="Ellipse_18" data-name="Ellipse 18" cx="9.267" cy="9.267" rx="9.267" ry="9.267" transform="translate(549.661 1004.272)" fill="none" stroke="#3d3d3d" stroke-miterlimit="10" stroke-width="6"/>
    <ellipse id="Ellipse_19" data-name="Ellipse 19" cx="8.667" cy="8.667" rx="8.667" ry="8.667" transform="translate(550.261 1004.872)" fill="#baf0f4" opacity="0.8"/>
    <path id="Path_12" data-name="Path 12" d="M3533.986,325.53a7.585,7.585,0,0,0-12.529,3.488l-.674.188a7.814,7.814,0,0,1,13.877-3.863Z" transform="translate(-2969.696 683.123)" fill="azure"/>
    <rect id="Rectangle_27" data-name="Rectangle 27" width="14.839" height="14.181" rx="7.091" transform="matrix(0.642, -0.766, 0.766, 0.642, 528.772, 1036.698)" fill="#eaceb9"/>
    <path id="Path_13" data-name="Path 13" d="M3606.986,325.719l1.006-.211a9.664,9.664,0,0,0,9.582-2.009l1.006-.211c-.692,1.528-2.729,2.922-5.326,3.466S3608.233,326.841,3606.986,325.719Z" transform="translate(-3035.675 682.415)" fill="#3d3d3d"/>
    <text id="_" data-name="?" transform="translate(584.901 1038.289) rotate(30)" fill="#c00" font-size="50" font-family="Bitter-Bold, Bitter" font-weight="700" style="white-space: pre;"><tspan x="0" y="0">?</tspan></text>
  </g>
  <g transform="matrix(0.021956, -0.000662, 0.00064, 0.02123, 93.309793, 113.215517)" style="">
    <g transform="translate(-42.339 -276.34)">
      <path d="m437.15 499.44zl-162.81-144.19-162.91 144.25v206.12c0 5.3234 4.3016 9.5938 9.625 9.5938h101.81v-90.375c0-5.3234 4.2704-9.625 9.5938-9.625h83.656c5.3234 0 9.5938 4.3016 9.5938 9.625v90.375h101.84c5.3234 0 9.5938-4.2704 9.5938-9.5938v-206.19zm-325.72 0.0625z" style="paint-order: fill; fill: rgb(97, 108, 171);"/>
      <path d="m273.39 276.34-231.05 204.58 24.338 27.457 207.66-183.88 207.61 183.88 24.291-27.457-231-204.58-0.89792 1.0397-0.94518-1.0397z" style="paint-order: fill; fill: rgb(97, 108, 171);"/>
      <path d="m111.43 305.79h58.571l-0.51038 34.691-58.061 52.452v-87.143z" style="paint-order: fill; fill: rgb(97, 108, 171);"/>
    </g>
  </g>
</svg>